<?xml version="1.0" encoding="utf-8"?>
<!-- Generator: Adobe Illustrator 16.0.0, SVG Export Plug-In . SVG Version: 6.00 Build 0)  -->
<!DOCTYPE svg PUBLIC "-//W3C//DTD SVG 1.1//EN" "http://www.w3.org/Graphics/SVG/1.1/DTD/svg11.dtd">
<svg version="1.1" id="Layer_1" xmlns="http://www.w3.org/2000/svg" xmlns:xlink="http://www.w3.org/1999/xlink" x="0px" y="0px"
	 width="611.588px" height="611.621px" viewBox="0 0 611.588 611.621" enable-background="new 0 0 611.588 611.621"
	 xml:space="preserve">
<path d="M302.329,73.622C430.402,71.7,536.101,174.329,538.058,302.393c1.876,128.037-100.782,233.706-228.786,235.63
	c-128.05,1.886-233.76-100.786-235.668-228.738c-0.953-65.166,25.105-124.539,67.827-167.391
	C182.677,100.521,239.444,74.545,302.329,73.622 M611.789,301.314C609.175,132.595,469.951-2.586,301.237-0.099
	C132.561,2.392-2.572,141.617-0.13,310.38c2.52,168.591,141.78,303.852,310.473,301.361c82.875-1.224,157.686-35.521,212.047-90.048
	C578.683,465.259,613.032,387.094,611.789,301.314"/>
<path fill="#008CFF" d="M252.751,345.947l-42.826,0.068l-0.348-228.771c-20.193,10.299-39.113,23.929-55.749,41.094
	c-2.25,2.315-4.396,4.673-6.516,7.039l0.259,180.736l-42.521,0.069l74.219,73.516L252.751,345.947 M379.412,427.67l-42.841,0.046
	l-0.479-331.374c-10.146-1.456-20.352-2.19-30.536-2.161c-10.666-0.007-21.269,0.84-31.809,2.43l0.504,331.214l-42.559,0.062
	l74.261,73.513L379.412,427.67 M506.848,345.562l-42.832,0.062l-0.289-180.775c-3.333-3.746-6.774-7.448-10.425-10.973
	c-15.78-15.308-33.329-27.627-51.98-37.043l0.371,228.883l-42.562,0.057l74.241,73.518L506.848,345.562"/>
</svg>
