<?xml version="1.0" encoding="utf-8"?>
<!-- Generator: Adobe Illustrator 16.0.0, SVG Export Plug-In . SVG Version: 6.00 Build 0)  -->
<!DOCTYPE svg PUBLIC "-//W3C//DTD SVG 1.1//EN" "http://www.w3.org/Graphics/SVG/1.1/DTD/svg11.dtd">
<svg version="1.1" id="Layer_1" xmlns="http://www.w3.org/2000/svg" xmlns:xlink="http://www.w3.org/1999/xlink" x="0px" y="0px"
	 width="35.613px" height="36px" viewBox="0 0 35.613 36" enable-background="new 0 0 35.613 36" xml:space="preserve">
<path d="M35.607,35.826c-3.994,0-7.938,0-11.933,0c0-0.2,0-0.382,0-0.563c0-5.755,0.002-11.511,0-17.265
	c-0.004-3.438-2.692-6.09-6.118-6.047c-3.188,0.04-5.833,2.695-5.841,5.9c-0.015,5.413-0.005,10.826-0.006,16.238
	c0,0.561,0,1.119,0,1.718c-3.97,0-7.923,0-11.933,0c0-0.181,0-0.361,0-0.543c0-5.739-0.001-11.479,0-17.219
	C-0.219,9.098,6.116,1.654,14.948,0.225c9.364-1.52,18.499,4.842,20.284,14.158c0.232,1.215,0.352,2.467,0.359,3.703
	c0.036,5.726,0.016,11.449,0.016,17.174C35.607,35.43,35.607,35.601,35.607,35.826z M1.286,25.409c0,3.01,0,5.971,0,8.929
	c2.993,0,5.954,0,8.913,0c0-2.992,0-5.952,0-8.929C7.219,25.409,4.268,25.409,1.286,25.409z M34.097,34.354c0-3.009,0-5.971,0-8.93
	c-2.992,0-5.953,0-8.913,0c0,2.992,0,5.953,0,8.93C28.165,34.354,31.115,34.354,34.097,34.354z"/>
</svg>
