<?xml version="1.0" encoding="utf-8"?>
<!-- Generator: Adobe Illustrator 16.0.0, SVG Export Plug-In . SVG Version: 6.00 Build 0)  -->
<!DOCTYPE svg PUBLIC "-//W3C//DTD SVG 1.1//EN" "http://www.w3.org/Graphics/SVG/1.1/DTD/svg11.dtd">
<svg version="1.1" id="Layer_1" xmlns="http://www.w3.org/2000/svg" xmlns:xlink="http://www.w3.org/1999/xlink" x="0px" y="0px"
	 width="35.613px" height="36px" viewBox="0 0 35.613 36" enable-background="new 0 0 35.613 36" xml:space="preserve">
<path fill-rule="evenodd" clip-rule="evenodd" fill="#FFFFFF" d="M-0.217,0C3.777,0,7.72,0,11.716,0c0,0.2,0,0.382,0,0.563
	c0,5.755-0.002,11.511,0,17.265c0.003,3.438,2.692,6.09,6.118,6.047c3.187-0.04,5.833-2.696,5.841-5.901
	c0.014-5.413,0.004-10.826,0.005-16.238c0-0.56,0-1.119,0-1.718c3.97,0,7.923,0,11.933,0c0,0.181,0,0.362,0,0.543
	c0,5.74,0.001,11.479,0,17.219c-0.004,8.949-6.339,16.392-15.171,17.822c-9.364,1.519-18.499-4.842-20.284-14.159
	c-0.232-1.214-0.352-2.467-0.359-3.703C-0.238,12.014-0.217,6.291-0.217,0.566C-0.217,0.396-0.217,0.225-0.217,0z M34.104,10.417
	c0-3.01,0-5.971,0-8.929c-2.993,0-5.954,0-8.913,0c0,2.992,0,5.952,0,8.929C28.172,10.417,31.122,10.417,34.104,10.417z
	 M1.293,1.471c0,3.009,0,5.971,0,8.93c2.992,0,5.953,0,8.913,0c0-2.992,0-5.953,0-8.93C7.225,1.471,4.275,1.471,1.293,1.471z"/>
</svg>
